<?xml version="1.0" standalone="no"?>
<!DOCTYPE svg PUBLIC "-//W3C//DTD SVG 20010904//EN"
 "http://www.w3.org/TR/2001/REC-SVG-20010904/DTD/svg10.dtd">
<svg version="1.0" xmlns="http://www.w3.org/2000/svg"
 width="144.000000pt" height="144.000000pt" viewBox="0 0 144.000000 144.000000"
 preserveAspectRatio="xMidYMid meet">
<metadata>
Created by potrace 1.16, written by Peter Selinger 2001-2019
</metadata>
<g transform="translate(0.000000,144.000000) scale(0.100000,-0.100000)"
fill="#000000" stroke="none">
<path d="M140 1294 c-30 -8 -73 -27 -95 -42 l-40 -28 -3 -501 -2 -502 31 -22
c17 -12 58 -30 91 -40 56 -18 103 -19 689 -19 l629 0 0 120 0 120 -595 0 -595
0 0 50 0 49 478 3 c346 3 487 7 514 16 67 23 129 74 162 132 l31 55 3 313 3
312 -623 -1 c-512 0 -633 -3 -678 -15z"/>
</g>
</svg>
