<?xml version="1.0" standalone="no"?>
<!DOCTYPE svg PUBLIC "-//W3C//DTD SVG 20010904//EN"
 "http://www.w3.org/TR/2001/REC-SVG-20010904/DTD/svg10.dtd">
<svg version="1.0" xmlns="http://www.w3.org/2000/svg"
 width="367.000000pt" height="137.000000pt" viewBox="0 0 367.000000 137.000000"
 preserveAspectRatio="xMidYMid meet">
<metadata>
Created by potrace 1.16, written by Peter Selinger 2001-2019
</metadata>
<g transform="translate(0.000000,137.000000) scale(0.100000,-0.100000)"
fill="#000000" stroke="none">
<path d="M182 1267 c-48 -18 -99 -63 -125 -110 -22 -42 -22 -44 -22 -497 0
-453 0 -455 23 -497 25 -48 55 -80 92 -96 17 -8 169 -14 488 -17 l462 -5 0
125 0 125 -406 -3 c-224 -2 -417 -1 -430 2 -21 6 -24 12 -24 56 l0 50 295 0
c169 0 315 4 343 11 64 13 123 63 151 128 30 70 41 161 41 344 0 133 2 157 15
157 13 0 15 20 15 120 l0 120 -442 -1 c-314 0 -452 -4 -476 -12z"/>
<path d="M2898 1272 l-28 -3 0 -360 0 -359 39 0 39 0 3 178 c4 156 7 181 25
212 17 29 26 35 54 35 54 0 60 -21 60 -237 l0 -188 46 0 46 0 -4 213 c-4 228
-12 268 -59 301 -42 29 -107 17 -137 -26 -26 -36 -32 -17 -32 106 0 133 -1
135 -52 128z"/>
<path d="M1751 1054 c-12 -15 -21 -31 -21 -37 0 -6 -3 -7 -7 -3 -5 4 -8 18 -8
29 0 18 -7 23 -37 25 l-38 3 0 -260 0 -261 39 0 39 0 4 173 c5 206 13 233 71
231 39 -1 40 0 53 70 7 43 -3 56 -48 56 -17 0 -34 -9 -47 -26z"/>
<path d="M1973 1068 c-71 -34 -115 -191 -94 -334 20 -134 69 -194 158 -194 51
0 98 30 123 79 25 49 25 68 3 75 -10 2 -28 7 -40 11 -16 4 -23 1 -28 -15 -27
-84 -112 -56 -130 43 l-7 37 117 0 118 0 -5 78 c-10 144 -68 233 -151 231 -23
0 -52 -5 -64 -11z"/>
<path d="M2535 1058 c-36 -28 -55 -76 -55 -140 0 -78 25 -112 108 -149 99 -45
97 -43 97 -80 0 -69 -91 -73 -123 -5 -12 24 -18 27 -44 22 -17 -3 -34 -6 -39
-6 -16 0 -9 -45 14 -84 57 -101 207 -101 265 -1 19 33 22 52 20 107 -3 58 -7
71 -33 98 -16 16 -54 39 -84 51 -79 29 -101 45 -101 74 0 53 93 58 115 7 9
-20 15 -22 45 -17 19 4 39 10 44 15 14 14 -33 99 -65 115 -44 23 -131 19 -164
-7z"/>
<path d="M1230 860 c0 -230 5 -259 55 -298 43 -34 90 -29 132 13 19 19 37 35
39 35 2 0 4 -13 4 -30 0 -28 2 -30 40 -30 l40 0 0 260 0 260 -44 0 -44 0 -4
-189 c-3 -185 -4 -190 -27 -215 -30 -32 -65 -33 -85 -4 -13 18 -16 55 -16 199
0 98 -3 184 -6 193 -4 11 -19 16 -45 16 l-39 0 0 -210z"/>
<path d="M3280 810 l0 -260 40 0 40 0 0 260 0 260 -40 0 -40 0 0 -260z"/>
<path d="M3460 810 l0 -260 45 0 45 0 0 260 0 260 -45 0 -45 0 0 -260z"/>
<path d="M2260 810 l0 -70 90 0 90 0 0 70 0 70 -90 0 -90 0 0 -70z"/>
<path d="M1262 398 c2 -17 10 -23 28 -23 l25 0 3 -128 c2 -119 4 -127 22 -127
19 0 20 7 20 125 l0 125 25 0 c20 0 25 5 25 25 0 24 -2 25 -76 25 -72 0 -75
-1 -72 -22z"/>
<path d="M1750 270 c0 -120 3 -150 14 -150 10 0 15 21 18 80 5 83 15 107 42
97 13 -5 16 -24 16 -92 0 -77 2 -86 18 -83 15 3 17 15 16 97 -2 79 -5 96 -22
114 -20 19 -22 19 -47 3 l-25 -17 3 51 c4 43 2 50 -14 50 -18 0 -19 -11 -19
-150z"/>
<path d="M1459 331 c-18 -14 -23 -31 -27 -80 -5 -74 10 -119 46 -128 30 -7 52
5 69 38 11 20 10 25 -3 27 -9 2 -23 -3 -33 -12 -13 -12 -20 -13 -29 -4 -25 25
-13 38 33 38 43 0 45 1 45 29 0 56 -33 110 -66 111 -7 0 -22 -8 -35 -19z"/>
<path d="M1615 325 c-14 -13 -25 -32 -26 -42 0 -10 -2 -27 -4 -38 -6 -30 14
-98 33 -112 29 -23 61 -15 82 20 11 17 20 35 20 40 0 15 -33 6 -49 -14 -16
-20 -18 -20 -34 -4 -30 29 -17 125 17 125 8 0 16 -7 20 -15 8 -22 36 -18 36 5
0 24 -34 60 -55 60 -9 0 -27 -11 -40 -25z"/>
<path d="M1972 334 c-12 -8 -22 -10 -22 -5 0 6 -9 11 -20 11 -20 0 -21 -5 -18
-107 3 -93 5 -108 21 -111 15 -3 17 6 17 76 0 59 4 83 15 92 26 22 38 -3 43
-90 3 -59 8 -80 18 -80 11 0 14 22 14 98 0 83 -3 102 -18 115 -23 21 -22 21
-50 1z"/>
<path d="M2110 332 c-13 -11 -25 -36 -30 -64 -15 -77 17 -148 67 -148 73 0
101 153 38 208 -31 27 -46 28 -75 4z"/>
<path d="M2349 321 c-25 -25 -29 -37 -29 -83 0 -131 106 -166 141 -47 19 67
-21 159 -69 159 -7 0 -27 -13 -43 -29z"/>
<path d="M2519 331 c-19 -15 -24 -30 -26 -82 -4 -67 8 -103 39 -123 13 -8 22
-6 38 9 l22 20 -4 -29 c-4 -38 -35 -58 -49 -34 -6 10 -19 18 -30 18 -16 0 -19
-4 -13 -22 3 -13 11 -29 16 -35 12 -15 66 -17 87 -4 18 12 30 85 30 199 1 86
0 92 -19 92 -11 0 -20 -5 -20 -12 0 -6 -7 -4 -18 5 -23 21 -25 21 -53 -2z"/>
<path d="M2762 330 c-38 -36 -42 -152 -5 -192 25 -28 66 -23 86 11 9 16 17 32
17 35 0 13 -34 5 -45 -11 -11 -15 -15 -15 -29 -4 -30 25 -19 41 29 41 43 0 45
1 45 29 0 41 -19 90 -40 101 -26 14 -33 13 -58 -10z"/>
<path d="M2912 334 c-19 -13 -22 -24 -20 -57 3 -38 7 -44 46 -66 41 -22 43
-25 27 -40 -15 -15 -18 -14 -36 8 -11 13 -25 21 -34 17 -20 -7 -19 -18 6 -50
43 -55 113 -22 107 50 -3 34 -8 42 -42 59 -22 11 -41 26 -44 33 -4 14 34 16
43 2 8 -13 45 -13 45 0 0 15 -47 60 -62 60 -8 0 -24 -7 -36 -16z"/>
<path d="M3332 334 c-12 -8 -22 -10 -22 -5 0 6 -7 11 -15 11 -12 0 -15 -19
-15 -110 0 -87 3 -110 14 -110 10 0 15 21 18 80 5 83 15 107 42 97 13 -5 16
-24 16 -92 0 -77 2 -86 18 -83 31 6 28 180 -4 213 -19 19 -24 19 -52 -1z"/>
<path d="M3469 331 c-21 -17 -24 -27 -24 -94 0 -60 4 -79 19 -96 35 -38 89
-21 102 32 5 23 3 27 -15 27 -12 0 -21 -6 -21 -14 0 -22 -19 -30 -35 -16 -22
18 -20 119 1 127 10 4 22 -1 29 -10 15 -21 45 -22 45 -2 0 20 -44 65 -63 65
-8 0 -25 -9 -38 -19z"/>
</g>
</svg>
