<?xml version="1.0" standalone="no"?>
<!DOCTYPE svg PUBLIC "-//W3C//DTD SVG 20010904//EN"
 "http://www.w3.org/TR/2001/REC-SVG-20010904/DTD/svg10.dtd">
<svg version="1.0" xmlns="http://www.w3.org/2000/svg"
 width="208.000000pt" height="183.000000pt" viewBox="0 0 208.000000 183.000000"
 preserveAspectRatio="xMidYMid meet">
<metadata>
Created by potrace 1.16, written by Peter Selinger 2001-2019
</metadata>
<g transform="translate(0.000000,183.000000) scale(0.100000,-0.100000)"
fill="#000000" stroke="none">
<path d="M183 1732 c-13 -2 -23 -8 -23 -13 0 -5 -13 -9 -30 -9 -25 0 -30 -4
-30 -25 l0 -25 160 0 160 0 0 35 c0 21 -5 35 -12 36 -49 3 -207 3 -225 1z"/>
<path d="M1222 1723 c-13 -7 -35 -13 -49 -13 -20 0 -24 -4 -21 -22 3 -23 6
-23 161 -26 l157 -3 0 36 c0 19 -3 35 -7 36 -87 6 -222 2 -241 -8z"/>
<path d="M1828 1732 c-10 -2 -18 -8 -18 -13 0 -5 -13 -9 -30 -9 -25 0 -30 -4
-30 -25 l0 -25 160 0 160 0 0 35 c0 26 -4 35 -17 36 -40 4 -209 4 -225 1z"/>
<path d="M209 1604 c-6 -8 -22 -14 -35 -14 -34 0 -33 -36 1 -44 16 -4 25 -13
25 -26 0 -11 5 -21 10 -21 6 -1 15 -2 21 -3 7 0 14 -19 16 -41 4 -50 34 -78
67 -65 27 10 213 1 237 -11 17 -9 81 -179 78 -207 -3 -37 1 -54 14 -49 14 5
16 -30 3 -52 -5 -8 -3 -17 5 -23 11 -7 11 -11 1 -15 -19 -7 -4 -23 23 -23 21
0 23 4 20 43 -2 25 3 55 13 74 15 31 15 33 -5 55 -27 29 -83 185 -83 232 0 40
-26 62 -61 51 -26 -9 -209 5 -209 15 0 4 9 10 21 13 11 3 23 15 26 26 5 21 9
21 402 21 340 0 398 2 398 14 0 8 -3 15 -6 14 -3 0 -15 0 -26 1 -17 1 -18 3
-5 11 10 6 -116 10 -366 10 -315 0 -387 3 -410 15 -21 10 -31 11 -41 3 -10 -8
-17 -8 -25 0 -8 8 -17 8 -30 1 -10 -5 -24 -6 -31 -2 -20 13 -36 12 -48 -3z"/>
<path d="M1276 1605 c-16 -8 -37 -15 -47 -15 -13 0 -18 -7 -17 -23 1 -16 8
-23 23 -23 13 1 21 -6 23 -21 3 -21 13 -28 35 -24 4 1 7 -27 5 -61 -3 -62 -3
-63 -53 -100 -27 -21 -74 -55 -103 -74 -47 -32 -53 -40 -49 -62 7 -35 -48
-205 -73 -227 -24 -22 -26 -48 -5 -65 17 -14 20 -40 5 -40 -5 0 -10 -7 -10
-15 0 -8 4 -15 9 -15 6 0 11 -17 13 -37 2 -20 8 -38 15 -40 14 -5 25 32 27 92
0 24 4 47 9 51 4 4 7 24 7 44 0 45 54 206 77 233 28 30 157 124 200 144 l38
18 3 71 c2 63 5 73 23 77 11 3 23 15 26 26 5 20 12 21 167 21 136 0 163 2 163
15 0 8 -4 12 -9 9 -4 -3 -11 2 -14 10 -5 14 -29 16 -153 16 -104 0 -151 4
-159 12 -15 15 -44 17 -54 4 -4 -6 -12 -5 -20 1 -19 16 -30 17 -39 2 -6 -10
-11 -10 -21 -1 -11 8 -21 8 -42 -3z"/>
<path d="M1871 1604 c-18 -8 -42 -14 -53 -14 -28 0 -19 -33 12 -40 15 -4 26
-15 30 -30 3 -14 12 -25 20 -25 16 0 20 -6 20 -32 0 -19 -164 -123 -193 -123
-9 0 -21 -9 -27 -20 -12 -22 -5 -60 10 -60 14 0 70 -189 68 -229 -1 -21 5 -39
15 -46 13 -9 14 -14 4 -24 -9 -9 -9 -14 1 -20 7 -4 10 -15 6 -24 -5 -13 0 -17
19 -17 23 0 25 4 23 39 -1 22 4 47 11 57 18 24 16 40 -5 61 -16 15 -72 180
-72 210 0 13 173 116 202 120 35 5 48 23 48 63 0 30 4 39 21 43 11 3 23 15 26
26 3 12 10 21 15 21 17 0 3 45 -19 63 -18 15 -26 16 -44 7 -14 -8 -24 -9 -31
-2 -7 7 -19 7 -33 2 -12 -5 -26 -5 -31 0 -5 5 -24 2 -43 -6z"/>
<path d="M187 613 c-15 -4 -18 -13 -16 -54 3 -58 -2 -64 -44 -61 -73 7 -116
-74 -62 -116 17 -14 25 -30 25 -51 0 -30 -1 -31 -46 -31 -29 0 -43 -4 -39 -11
4 -6 23 -9 44 -7 33 3 36 1 36 -22 0 -23 -3 -25 -36 -22 -21 2 -40 -1 -44 -7
-4 -7 10 -11 39 -11 25 0 46 -4 46 -10 0 -5 -20 -10 -45 -10 -43 0 -45 -1 -45
-30 l0 -30 70 0 70 0 0 29 c0 16 -6 32 -12 34 -10 4 -9 8 2 17 11 9 12 13 3
17 -15 6 -17 39 -3 48 6 3 10 13 10 21 0 9 -5 12 -12 8 -8 -5 -9 -2 -5 10 4
10 7 25 7 34 0 12 5 11 21 -7 21 -23 22 -27 12 -160 -5 -75 -7 -141 -5 -147 2
-7 12 -9 23 -7 17 5 18 7 5 22 -12 14 -12 26 3 93 9 42 18 79 21 82 3 3 4 -40
2 -94 l-4 -100 26 0 c29 0 33 7 12 24 -12 9 -13 26 -5 101 13 120 17 135 34
135 9 0 15 15 18 48 l3 47 2 -47 c2 -44 4 -48 27 -48 22 0 25 4 25 38 1 33 2
35 14 20 7 -10 21 -18 30 -18 9 0 16 8 16 18 0 13 -2 14 -9 3 -7 -11 -13 -9
-30 8 -11 11 -21 26 -21 32 0 6 -6 9 -14 6 -8 -3 -22 3 -32 14 -16 17 -16 19
-1 20 25 2 30 4 54 17 18 10 24 9 37 -3 8 -8 22 -15 30 -15 11 0 16 -10 16
-34 l0 -34 128 -6 c70 -4 211 -9 315 -12 l187 -6 0 -25 0 -26 -187 4 c-265 5
-443 1 -443 -10 0 -6 36 -9 83 -7 45 2 64 1 42 -1 -46 -5 -66 -18 -58 -39 7
-20 21 -18 19 3 -1 12 7 19 23 21 35 5 71 -7 71 -23 0 -8 4 -15 10 -15 5 0 7
7 4 15 -4 8 -2 15 4 15 5 0 12 -7 16 -15 3 -8 10 -15 15 -15 6 0 8 7 5 15 -4
8 -1 15 5 15 6 0 11 -7 11 -15 0 -21 20 -19 20 3 1 16 1 16 14 -1 17 -22 26
-22 26 1 1 16 1 16 11 0 13 -23 30 -23 23 0 -5 16 -5 16 9 -1 20 -24 27 -21
27 8 0 28 -12 26 155 29 101 1 115 7 115 42 0 24 1 24 93 24 80 0 96 -3 115
-21 12 -11 26 -18 31 -14 5 3 12 -1 15 -7 5 -11 7 -11 12 0 3 6 10 10 15 7 5
-4 19 3 31 14 12 12 18 21 12 21 -5 0 -2 5 6 10 8 5 105 10 220 10 l205 0 63
-40 c52 -33 62 -44 62 -67 l0 -28 -104 3 c-68 3 -106 0 -110 -7 -5 -8 26 -11
103 -11 67 0 111 -4 111 -10 0 -6 -43 -10 -110 -10 -91 0 -110 -3 -110 -15 0
-9 9 -15 25 -15 16 0 25 -6 25 -15 0 -13 22 -15 140 -15 l140 0 0 30 c0 28 -3
30 -35 30 -19 0 -35 5 -35 10 0 6 16 10 35 10 19 0 35 5 35 11 0 7 -14 10 -35
7 l-35 -4 0 66 c0 54 4 70 20 85 20 18 26 60 12 81 -21 32 -52 33 -910 30
-475 -2 -865 1 -868 6 -3 4 -15 8 -27 8 -19 0 -23 5 -22 35 1 19 10 44 20 55
18 20 18 20 -6 19 -13 -1 -32 -3 -42 -6z"/>
<path d="M1113 296 c-4 -8 -19 -16 -33 -18 -22 -3 -25 -9 -28 -45 l-3 -43
-104 7 c-77 4 -108 3 -120 -7 -8 -7 -13 -15 -11 -19 2 -3 62 -4 133 -1 l128 5
3 48 c3 51 22 63 44 27 16 -25 39 -27 32 -2 -5 16 -5 16 9 0 17 -22 31 -23 23
-3 -3 8 -1 15 3 15 5 0 11 -7 15 -15 3 -8 10 -15 15 -15 6 0 8 7 5 15 -4 8 -1
15 5 15 6 0 11 -7 11 -15 0 -21 20 -19 20 3 1 16 1 16 14 0 16 -22 30 -23 22
-3 -3 8 -1 15 3 15 5 0 11 -7 15 -15 3 -8 10 -15 15 -15 6 0 8 7 5 15 -4 8 -1
15 5 15 6 0 11 -7 11 -15 0 -8 7 -15 15 -15 13 0 14 4 4 23 -7 12 -11 24 -10
27 1 3 -9 7 -21 8 -13 2 -27 8 -32 13 -17 15 -184 11 -193 -5z"/>
</g>
</svg>
